<?xml version="1.0" encoding="us-ascii" standalone="no"?><svg xmlns="http://www.w3.org/2000/svg" xmlns:xlink="http://www.w3.org/1999/xlink" contentStyleType="text/css" height="411px" preserveAspectRatio="none" style="width:480px;height:411px;background:#0D1117;" version="1.1" viewBox="0 0 480 411" width="480px" zoomAndPan="magnify"><defs/><g><rect fill="#0D1117" height="411" style="stroke:none;stroke-width:1.0;" width="480" x="0" y="0"/><rect fill="#72B76B" height="156.4551" style="stroke:#BCBEC4;stroke-width:1.0;" width="10" x="152.5" y="135.5332"/><rect fill="#BFA96D" height="93.873" style="stroke:#BCBEC4;stroke-width:1.0;" width="10" x="293" y="166.8242"/><rect fill="#947ABB" height="31.291" style="stroke:#BCBEC4;stroke-width:1.0;" width="10" x="431.5" y="198.1152"/><line style="stroke:#BCBEC4;stroke-width:0.5;stroke-dasharray:5.0,5.0;" x1="41" x2="41" y1="102.2422" y2="309.9883"/><line style="stroke:#BCBEC4;stroke-width:0.5;stroke-dasharray:5.0,5.0;" x1="157" x2="157" y1="102.2422" y2="309.9883"/><line style="stroke:#BCBEC4;stroke-width:0.5;stroke-dasharray:5.0,5.0;" x1="298" x2="298" y1="102.2422" y2="309.9883"/><line style="stroke:#BCBEC4;stroke-width:0.5;stroke-dasharray:5.0,5.0;" x1="436" x2="436" y1="102.2422" y2="309.9883"/><text fill="#BCBEC4" font-family="sans-serif" font-size="14" font-weight="bold" lengthAdjust="spacing" textLength="67" x="5" y="80.1074">Awesome</text><text fill="#BCBEC4" font-family="sans-serif" font-size="14" font-weight="bold" lengthAdjust="spacing" textLength="28" x="24.5" y="98.7285">You</text><ellipse cx="41.5" cy="13.5" fill="#BCBEC4" rx="8" ry="8" style="stroke:#72B76B;stroke-width:0.5;"/><path d="M41.5,21.5 L41.5,48.5 M28.5,29.5 L54.5,29.5 M41.5,48.5 L28.5,63.5 M41.5,48.5 L54.5,63.5 " fill="none" style="stroke:#72B76B;stroke-width:0.5;"/><text fill="#BCBEC4" font-family="sans-serif" font-size="14" font-weight="bold" lengthAdjust="spacing" textLength="67" x="5" y="324.0957">Awesome</text><text fill="#BCBEC4" font-family="sans-serif" font-size="14" font-weight="bold" lengthAdjust="spacing" textLength="28" x="24.5" y="342.7168">You</text><ellipse cx="41.5" cy="354.7305" fill="#BCBEC4" rx="8" ry="8" style="stroke:#72B76B;stroke-width:0.5;"/><path d="M41.5,362.7305 L41.5,389.7305 M28.5,370.7305 L54.5,370.7305 M41.5,389.7305 L28.5,404.7305 M41.5,389.7305 L54.5,404.7305 " fill="none" style="stroke:#72B76B;stroke-width:0.5;"/><rect fill="#72B76B" height="32.6211" rx="2.5" ry="2.5" style="stroke:#181818;stroke-width:0.5;" width="79" x="118" y="68.6211"/><text fill="#0D1117" font-family="sans-serif" font-size="14" font-weight="bold" lengthAdjust="spacing" textLength="65" x="125" y="90.7285">Frontend</text><rect fill="#72B76B" height="32.6211" rx="2.5" ry="2.5" style="stroke:#181818;stroke-width:0.5;" width="79" x="118" y="308.9883"/><text fill="#0D1117" font-family="sans-serif" font-size="14" font-weight="bold" lengthAdjust="spacing" textLength="65" x="125" y="331.0957">Frontend</text><rect fill="#BFA96D" height="32.6211" rx="2.5" ry="2.5" style="stroke:#181818;stroke-width:0.5;" width="62" x="267" y="68.6211"/><text fill="#0D1117" font-family="sans-serif" font-size="14" font-weight="bold" lengthAdjust="spacing" textLength="48" x="274" y="90.7285">Middle</text><rect fill="#BFA96D" height="32.6211" rx="2.5" ry="2.5" style="stroke:#181818;stroke-width:0.5;" width="62" x="267" y="308.9883"/><text fill="#0D1117" font-family="sans-serif" font-size="14" font-weight="bold" lengthAdjust="spacing" textLength="48" x="274" y="331.0957">Middle</text><rect fill="#947ABB" height="32.6211" rx="2.5" ry="2.5" style="stroke:#181818;stroke-width:0.5;" width="75" x="399" y="68.6211"/><text fill="#0D1117" font-family="sans-serif" font-size="14" font-weight="bold" lengthAdjust="spacing" textLength="61" x="406" y="90.7285">Backend</text><rect fill="#947ABB" height="32.6211" rx="2.5" ry="2.5" style="stroke:#181818;stroke-width:0.5;" width="75" x="399" y="308.9883"/><text fill="#0D1117" font-family="sans-serif" font-size="14" font-weight="bold" lengthAdjust="spacing" textLength="61" x="406" y="331.0957">Backend</text><rect fill="#72B76B" height="156.4551" style="stroke:#BCBEC4;stroke-width:1.0;" width="10" x="152.5" y="135.5332"/><rect fill="#BFA96D" height="93.873" style="stroke:#BCBEC4;stroke-width:1.0;" width="10" x="293" y="166.8242"/><rect fill="#947ABB" height="31.291" style="stroke:#BCBEC4;stroke-width:1.0;" width="10" x="431.5" y="198.1152"/><polygon fill="#BCBEC4" points="140.5,131.5332,150.5,135.5332,140.5,139.5332,144.5,135.5332" style="stroke:#BCBEC4;stroke-width:1.0;"/><line style="stroke:#BCBEC4;stroke-width:1.0;" x1="41.5" x2="146.5" y1="135.5332" y2="135.5332"/><text fill="#BCBEC4" font-family="sans-serif" font-size="13" font-weight="bold" lengthAdjust="spacing" textLength="65" x="64.5" y="130.2705">Command</text><polygon fill="#BCBEC4" points="281,162.8242,291,166.8242,281,170.8242,285,166.8242" style="stroke:#BCBEC4;stroke-width:1.0;"/><line style="stroke:#BCBEC4;stroke-width:1.0;" x1="162.5" x2="287" y1="166.8242" y2="166.8242"/><text fill="#BCBEC4" font-family="sans-serif" font-size="13" font-weight="bold" lengthAdjust="spacing" textLength="51" x="202.25" y="161.5615">Request</text><polygon fill="#BCBEC4" points="419.5,194.1152,429.5,198.1152,419.5,202.1152,423.5,198.1152" style="stroke:#BCBEC4;stroke-width:1.0;"/><line style="stroke:#BCBEC4;stroke-width:1.0;" x1="303" x2="425.5" y1="198.1152" y2="198.1152"/><text fill="#BCBEC4" font-family="sans-serif" font-size="13" font-weight="bold" lengthAdjust="spacing" textLength="51" x="341.75" y="192.8525">Request</text><polygon fill="#BCBEC4" points="314,225.4063,304,229.4063,314,233.4063,310,229.4063" style="stroke:#BCBEC4;stroke-width:1.0;"/><line style="stroke:#BCBEC4;stroke-width:1.0;stroke-dasharray:2.0,2.0;" x1="308" x2="435.5" y1="229.4063" y2="229.4063"/><text fill="#BCBEC4" font-family="sans-serif" font-size="13" font-weight="bold" lengthAdjust="spacing" textLength="61" x="339.25" y="224.1436">Response</text><polygon fill="#BCBEC4" points="173.5,256.6973,163.5,260.6973,173.5,264.6973,169.5,260.6973" style="stroke:#BCBEC4;stroke-width:1.0;"/><line style="stroke:#BCBEC4;stroke-width:1.0;stroke-dasharray:2.0,2.0;" x1="167.5" x2="297" y1="260.6973" y2="260.6973"/><text fill="#BCBEC4" font-family="sans-serif" font-size="13" font-weight="bold" lengthAdjust="spacing" textLength="61" x="199.75" y="255.4346">Response</text><polygon fill="#BCBEC4" points="52.5,287.9883,42.5,291.9883,52.5,295.9883,48.5,291.9883" style="stroke:#BCBEC4;stroke-width:1.0;"/><line style="stroke:#BCBEC4;stroke-width:1.0;stroke-dasharray:2.0,2.0;" x1="46.5" x2="156.5" y1="291.9883" y2="291.9883"/><text fill="#BCBEC4" font-family="sans-serif" font-size="13" font-weight="bold" lengthAdjust="spacing" textLength="47" x="76" y="286.7256">Answer</text><!--SRC=[RPBDQiCm48JlUefjV0xKROX93WMxu5vY22qz17gHh8qHiILNKXfAwRjNbkE_r3xkV9ePhMLoMYA4XDnnF0g9aD3yL6XrbXo2Unw6OTHBiTRg0W7B6UQhVlgiIgKFRdoacpMVZlSGR5OHPMmwVe4WUc3HcX5YJaBMLDCAM1_icL6H4MJmyumoH_WXuBuujqedIdFKxQ7MVj1I9Msh-F9JuSr-kxipLNBYXJtLLkIYfjBkAUT25l1uVwlC7SpG65fWN8f2GexIecwJcipP2fqmSkhdOtWk_Tzw6cOdZhXp2nulOyWREIGtQswXNq9einPOn1Sqgi8FUL3d1L03xmRxDlNW0ujKkp8ekQVIRlKJ91ESb-Y1xFfGfa3JfhD8hc-641-vV89qwqPLHTqTNJlnHIqEGIHja6mBhysRC7P0-YYIDKWoW_HP2Imx5rChQP1m72Zlq1QPqpDVmkbDuIt4qbpSdny1AVa3]--></g></svg>