<?xml version="1.0" encoding="UTF-8" standalone="no"?><!-- Generator: Gravit.io --><svg xmlns="http://www.w3.org/2000/svg" xmlns:xlink="http://www.w3.org/1999/xlink" style="isolation:isolate" viewBox="0 0 1080 90" width="1080pt" height="90pt"><defs><clipPath id="_clipPath_WKimJvM73lv1Vb0QANuPMcLXR7aibYui"><rect width="1080" height="90"/></clipPath></defs><g clip-path="url(#_clipPath_WKimJvM73lv1Vb0QANuPMcLXR7aibYui)"><rect width="1080" height="90" style="fill:rgb(114,183,107)"/><path d=" M 995.253 32.407 Q 993.384 33.279 992.188 33.838 C 990.992 34.397 991.07 34.664 990.54 35.197 C 990.009 35.729 990.272 36.237 990.424 36.787 Q 990.576 37.338 991.277 37.814 L 995.918 39.563 C 997.364 40.069 998.462 40.33 1000.091 40.821 C 1001.719 41.312 1002.872 41.469 1004.399 41.717 C 1005.926 41.966 1006.153 41.791 1007.1 41.717 C 1008.047 41.644 1008.78 41.335 1009.616 40.925 C 1010.451 40.516 1010.753 40.358 1011.322 39.971 C 1012.752 38.901 1013.841 38.166 1015.454 37.01 C 1017.066 35.854 1018.588 34.911 1020.326 33.838 C 1022.064 32.764 1022.933 32.024 1024.316 31.001 C 1025.7 29.978 1028.045 28.538 1030.123 27.297 Q 1032.2 26.056 1035.281 23.83 L 1036.247 23.31 L 1037.201 23.31 L 1037.606 23.83 L 1037.606 24.466 L 1037.115 25.233 C 1036.862 25.508 1036.674 25.709 1036.392 26.013 C 1036.11 26.318 1034.385 28.132 1033.269 29.252 C 1032.153 30.372 1030.11 32.361 1028.339 33.982 C 1026.568 35.604 1024.668 37.411 1022.651 39.237 C 1020.634 41.062 1020.457 41.347 1019.285 42.507 C 1018.113 43.667 1018.274 43.696 1017.767 44.372 C 1017.26 45.048 1017.475 45.435 1017.513 46.026 C 1017.55 46.617 1018.011 47.262 1018.603 47.645 L 1024.14 51.621 L 1034.009 58.205 C 1035.198 59.286 1036.273 59.82 1037.722 60.854 C 1039.171 61.888 1039.663 61.82 1040.773 62.199 C 1041.882 62.577 1042.7 62.302 1043.693 62.005 C 1044.687 61.707 1044.863 61.115 1045.191 60.403 L 1046.478 55.56 L 1048.161 46.208 L 1049.728 37.409 L 1050.861 30.119 C 1051.283 27.435 1051.538 25.452 1051.972 22.465 C 1052.405 19.478 1052.575 17.742 1052.856 15.178 C 1053.138 12.615 1052.842 12.915 1052.741 11.694 C 1052.64 10.473 1050.388 9.887 1048.938 10.349 L 1042.953 12.287 L 1034.252 15.653 L 1025.276 19.296 L 1017.004 22.963 L 1005.414 27.991 Q 1001.812 29.469 995.253 32.407 Z " fill="rgb(188,190,196)" vector-effect="non-scaling-stroke" stroke-width="1" stroke="rgb(188,190,196)" stroke-linejoin="miter" stroke-linecap="square" stroke-miterlimit="3"/><path d=" M 258.909 51.679 Q 257.04 52.551 255.844 53.11 C 254.647 53.669 254.726 53.936 254.195 54.469 C 253.665 55.002 253.928 55.509 254.08 56.059 Q 254.232 56.61 254.933 57.086 L 259.574 58.835 C 261.02 59.341 262.118 59.602 263.746 60.093 C 265.375 60.584 266.528 60.741 268.055 60.99 C 269.582 61.238 269.809 61.063 270.756 60.99 C 271.703 60.916 272.436 60.607 273.271 60.197 C 274.107 59.788 274.409 59.63 274.977 59.243 C 276.407 58.173 277.497 57.438 279.109 56.282 C 280.722 55.126 282.244 54.183 283.982 53.11 C 285.72 52.036 286.589 51.296 287.972 50.273 C 289.355 49.251 291.701 47.81 293.778 46.569 Q 295.856 45.328 298.937 43.102 L 299.903 42.582 L 300.857 42.582 L 301.262 43.102 L 301.262 43.738 L 300.77 44.505 C 300.517 44.78 300.33 44.981 300.047 45.285 C 299.765 45.59 298.04 47.404 296.925 48.524 C 295.809 49.644 293.765 51.633 291.994 53.255 C 290.224 54.876 288.324 56.683 286.307 58.509 C 284.29 60.334 284.112 60.619 282.941 61.779 C 281.769 62.939 281.93 62.968 281.423 63.644 C 280.915 64.32 281.13 64.707 281.168 65.298 C 281.206 65.889 281.667 66.534 282.258 66.917 L 287.796 70.893 L 297.665 77.477 C 298.853 78.558 299.929 79.092 301.378 80.126 C 302.827 81.16 303.318 81.092 304.428 81.471 C 305.538 81.849 306.355 81.574 307.349 81.277 C 308.342 80.979 308.518 80.387 308.847 79.675 L 310.133 74.832 L 311.816 65.48 L 313.384 56.681 L 314.517 49.391 C 314.939 46.707 315.194 44.724 315.627 41.737 C 316.061 38.75 316.23 37.014 316.512 34.45 C 316.794 31.887 316.498 32.187 316.397 30.966 C 316.295 29.745 314.044 29.159 312.594 29.622 L 306.609 31.559 L 297.908 34.925 L 288.932 38.568 L 280.659 42.235 L 269.07 47.263 Q 265.468 48.741 258.909 51.679 Z " fill="rgb(13,17,23)" vector-effect="non-scaling-stroke" stroke-width="1" stroke="rgb(13,17,23)" stroke-linejoin="miter" stroke-linecap="square" stroke-miterlimit="3"/><path d=" M 760.976 51.679 Q 759.107 52.551 757.911 53.11 C 756.714 53.669 756.793 53.936 756.262 54.469 C 755.732 55.002 755.995 55.509 756.147 56.059 Q 756.299 56.61 757 57.086 L 761.641 58.835 C 763.087 59.341 764.185 59.602 765.813 60.093 C 767.442 60.584 768.595 60.741 770.122 60.99 C 771.649 61.238 771.876 61.063 772.823 60.99 C 773.77 60.916 774.503 60.607 775.338 60.197 C 776.174 59.788 776.476 59.63 777.044 59.243 C 778.474 58.173 779.564 57.438 781.176 56.282 C 782.789 55.126 784.311 54.183 786.049 53.11 C 787.787 52.036 788.656 51.296 790.039 50.273 C 791.422 49.251 793.768 47.81 795.845 46.569 Q 797.923 45.328 801.004 43.102 L 801.97 42.582 L 802.924 42.582 L 803.329 43.102 L 803.329 43.738 L 802.837 44.505 C 802.584 44.78 802.397 44.981 802.114 45.285 C 801.832 45.59 800.107 47.404 798.992 48.524 C 797.876 49.644 795.832 51.633 794.061 53.255 C 792.29 54.876 790.391 56.683 788.374 58.509 C 786.357 60.334 786.179 60.619 785.008 61.779 C 783.836 62.939 783.997 62.968 783.49 63.644 C 782.982 64.32 783.197 64.707 783.235 65.298 C 783.273 65.889 783.734 66.534 784.325 66.917 L 789.863 70.893 L 799.732 77.477 C 800.92 78.558 801.996 79.092 803.445 80.126 C 804.894 81.16 805.385 81.092 806.495 81.471 C 807.605 81.849 808.422 81.574 809.416 81.277 C 810.409 80.979 810.585 80.387 810.914 79.675 L 812.2 74.832 L 813.883 65.48 L 815.45 56.681 L 816.584 49.391 C 817.006 46.707 817.261 44.724 817.694 41.737 C 818.128 38.75 818.297 37.014 818.579 34.45 C 818.861 31.887 818.565 32.187 818.464 30.966 C 818.362 29.745 816.111 29.159 814.661 29.622 L 808.675 31.559 L 799.975 34.925 L 790.999 38.568 L 782.726 42.235 L 771.137 47.263 Q 767.535 48.741 760.976 51.679 Z " fill="rgb(13,17,23)" vector-effect="non-scaling-stroke" stroke-width="1" stroke="rgb(13,17,23)" stroke-linejoin="miter" stroke-linecap="square" stroke-miterlimit="3"/><path d=" M 516.564 32.407 Q 514.695 33.279 513.499 33.838 C 512.303 34.397 512.382 34.664 511.851 35.197 C 511.32 35.729 511.583 36.237 511.735 36.787 Q 511.888 37.338 512.588 37.814 L 517.229 39.563 C 518.675 40.069 519.773 40.33 521.402 40.821 C 523.03 41.312 524.184 41.469 525.71 41.717 C 527.237 41.966 527.464 41.791 528.411 41.717 C 529.358 41.644 530.092 41.335 530.927 40.925 C 531.762 40.516 532.064 40.358 532.633 39.971 C 534.063 38.901 535.152 38.166 536.765 37.01 C 538.378 35.854 539.899 34.911 541.637 33.838 C 543.375 32.764 544.244 32.024 545.628 31.001 C 547.011 29.978 549.356 28.538 551.434 27.297 Q 553.512 26.056 556.593 23.83 L 557.558 23.31 L 558.513 23.31 L 558.917 23.83 L 558.917 24.466 L 558.426 25.233 C 558.173 25.508 557.985 25.709 557.703 26.013 C 557.421 26.318 555.696 28.132 554.58 29.252 C 553.464 30.372 551.421 32.361 549.65 33.982 C 547.879 35.604 545.979 37.411 543.962 39.237 C 541.945 41.062 541.768 41.347 540.596 42.507 C 539.425 43.667 539.585 43.696 539.078 44.372 C 538.571 45.048 538.786 45.435 538.824 46.026 C 538.862 46.617 539.323 47.262 539.914 47.645 L 545.451 51.621 L 555.32 58.205 C 556.509 59.286 557.584 59.82 559.033 60.854 C 560.482 61.888 560.974 61.82 562.084 62.199 C 563.194 62.577 564.011 62.302 565.004 62.005 C 565.998 61.707 566.174 61.115 566.502 60.403 L 567.789 55.56 L 569.472 46.208 L 571.039 37.409 L 572.172 30.119 C 572.595 27.435 572.85 25.452 573.283 22.465 C 573.716 19.478 573.886 17.742 574.168 15.178 C 574.45 12.615 574.153 12.915 574.052 11.694 C 573.951 10.473 571.699 9.887 570.25 10.349 L 564.264 12.287 L 555.563 15.653 L 546.588 19.296 L 538.315 22.963 L 526.725 27.991 Q 523.124 29.469 516.564 32.407 Z " fill="rgb(188,190,196)" vector-effect="non-scaling-stroke" stroke-width="1" stroke="rgb(188,190,196)" stroke-linejoin="miter" stroke-linecap="square" stroke-miterlimit="3"/><path d=" M 37.875 32.407 Q 36.007 33.279 34.81 33.838 C 33.614 34.397 33.693 34.664 33.162 35.197 C 32.631 35.729 32.894 36.237 33.046 36.787 Q 33.199 37.338 33.899 37.814 L 38.54 39.563 C 39.986 40.069 41.085 40.33 42.713 40.821 C 44.341 41.312 45.495 41.469 47.022 41.717 C 48.548 41.966 48.775 41.791 49.722 41.717 C 50.669 41.644 51.403 41.335 52.238 40.925 C 53.073 40.516 53.375 40.358 53.944 39.971 C 55.374 38.901 56.464 38.166 58.076 37.01 C 59.689 35.854 61.21 34.911 62.948 33.838 C 64.687 32.764 65.556 32.024 66.939 31.001 C 68.322 29.978 70.667 28.538 72.745 27.297 Q 74.823 26.056 77.904 23.83 L 78.87 23.31 L 79.824 23.31 L 80.229 23.83 L 80.229 24.466 L 79.737 25.233 C 79.484 25.508 79.296 25.709 79.014 26.013 C 78.732 26.318 77.007 28.132 75.891 29.252 C 74.775 30.372 72.732 32.361 70.961 33.982 C 69.19 35.604 67.29 37.411 65.273 39.237 C 63.256 41.062 63.079 41.347 61.907 42.507 C 60.736 43.667 60.897 43.696 60.389 44.372 C 59.882 45.048 60.097 45.435 60.135 46.026 C 60.173 46.617 60.634 47.262 61.225 47.645 L 66.762 51.621 L 76.631 58.205 C 77.82 59.286 78.895 59.82 80.344 60.854 C 81.793 61.888 82.285 61.82 83.395 62.199 C 84.505 62.577 85.322 62.302 86.315 62.005 C 87.309 61.707 87.485 61.115 87.813 60.403 L 89.1 55.56 L 90.783 46.208 L 92.35 37.409 L 93.484 30.119 C 93.906 27.435 94.161 25.452 94.594 22.465 C 95.027 19.478 95.197 17.742 95.479 15.178 C 95.761 12.615 95.464 12.915 95.363 11.694 C 95.262 10.473 93.01 9.887 91.561 10.349 L 85.575 12.287 L 76.874 15.653 L 67.899 19.296 L 59.626 22.963 L 48.036 27.991 Q 44.435 29.469 37.875 32.407 Z " fill="rgb(188,190,196)" vector-effect="non-scaling-stroke" stroke-width="1" stroke="rgb(188,190,196)" stroke-linejoin="miter" stroke-linecap="square" stroke-miterlimit="3"/><path d=" M 511.636 59.956 L 511.636 89.487 L 507.944 89.487 L 507.944 4.585 L 548.806 4.585 L 548.806 8.276 L 511.636 8.276 L 511.636 11.968 L 548.806 11.968 L 548.806 15.659 L 511.636 15.659 L 511.636 19.35 L 548.806 19.35 L 548.806 23.042 L 511.636 23.042 L 511.636 41.499 L 547.063 41.499 L 547.063 45.19 L 511.636 45.19 L 511.636 48.882 L 547.063 48.882 L 547.063 52.573 L 511.636 52.573 L 511.636 56.264 L 547.063 56.264 L 547.063 59.956 L 511.636 59.956 L 511.636 59.956 Z  M 504.253 4.585 L 504.253 89.487 L 500.561 89.487 L 500.561 4.585 L 504.253 4.585 L 504.253 4.585 Z  M 496.87 4.585 L 496.87 89.487 L 493.179 89.487 L 493.179 4.585 L 496.87 4.585 L 496.87 4.585 Z  M 489.487 4.585 L 489.487 89.487 L 485.796 89.487 L 485.796 4.585 L 489.487 4.585 L 489.487 4.585 Z  M 609.765 64.57 L 594.179 64.57 L 595.666 60.879 L 608.279 60.879 L 609.765 64.57 L 609.765 64.57 Z  M 612.739 71.953 L 591.308 71.953 L 592.744 68.262 L 611.15 68.262 L 612.739 71.953 L 612.739 71.953 Z  M 615.61 79.336 L 588.437 79.336 L 589.873 75.644 L 614.072 75.644 L 615.61 79.336 L 615.61 79.336 Z  M 590.027 9.558 L 558.445 89.487 L 554.446 89.487 L 588.027 4.585 L 592.026 4.585 L 625.556 89.487 L 621.609 89.487 L 590.027 9.558 L 590.027 9.558 Z  M 562.392 89.487 L 590.488 18.325 L 592.59 23.042 L 566.34 89.487 L 562.392 89.487 L 562.392 89.487 Z  M 570.339 89.487 L 594.59 28.066 L 596.538 33.142 L 574.338 89.487 L 570.339 89.487 L 570.339 89.487 Z  M 578.286 89.487 L 598.486 38.218 L 600.434 43.396 L 582.234 89.487 L 578.286 89.487 L 578.286 89.487 Z  M 615.815 4.585 L 649.397 89.487 L 645.398 89.487 L 611.867 4.585 L 615.815 4.585 L 615.815 4.585 Z  M 603.921 4.585 L 607.868 4.585 L 641.45 89.487 L 637.502 89.487 L 603.921 4.585 L 603.921 4.585 Z  M 595.974 4.585 L 599.922 4.585 L 633.503 89.487 L 629.504 89.487 L 595.974 4.585 L 595.974 4.585 Z  M 714.56 33.603 L 714.56 33.603 L 711.535 35.603 L 711.535 35.603 Q 708.767 31.501 704.332 29.117 L 704.332 29.117 L 704.332 29.117 Q 699.897 26.733 694.719 26.733 L 694.719 26.733 L 694.719 26.733 Q 686.311 26.733 680.364 32.68 L 680.364 32.68 L 680.364 32.68 Q 674.416 38.628 674.416 47.036 L 674.416 47.036 L 674.416 47.036 Q 674.416 55.444 680.364 61.391 L 680.364 61.391 L 680.364 61.391 Q 686.311 67.339 694.719 67.339 L 694.719 67.339 L 694.719 67.339 Q 699.897 67.339 704.332 64.929 L 704.332 64.929 L 704.332 64.929 Q 708.767 62.519 711.535 58.418 L 711.535 58.418 L 714.509 60.571 L 714.509 60.571 Q 711.228 65.39 705.998 68.21 L 705.998 68.21 L 705.998 68.21 Q 700.769 71.03 694.719 71.03 L 694.719 71.03 L 694.719 71.03 Q 689.848 71.03 685.414 69.133 L 685.414 69.133 L 685.414 69.133 Q 680.979 67.236 677.749 64.006 L 677.749 64.006 L 677.749 64.006 Q 674.519 60.776 672.622 56.341 L 672.622 56.341 L 672.622 56.341 Q 670.725 51.907 670.725 47.036 L 670.725 47.036 L 670.725 47.036 Q 670.725 42.165 672.622 37.731 L 672.622 37.731 L 672.622 37.731 Q 674.519 33.296 677.749 30.066 L 677.749 30.066 L 677.749 30.066 Q 680.979 26.836 685.414 24.939 L 685.414 24.939 L 685.414 24.939 Q 689.848 23.042 694.719 23.042 L 694.719 23.042 L 694.719 23.042 Q 700.82 23.042 706.05 25.887 L 706.05 25.887 L 706.05 25.887 Q 711.279 28.733 714.56 33.603 Z  M 720.661 29.399 L 720.661 29.399 L 717.585 31.399 L 717.585 31.399 Q 713.791 25.862 707.767 22.606 L 707.767 22.606 L 707.767 22.606 Q 701.743 19.35 694.719 19.35 L 694.719 19.35 L 694.719 19.35 Q 687.182 19.35 680.825 23.067 L 680.825 23.067 L 680.825 23.067 Q 674.468 26.784 670.751 33.142 L 670.751 33.142 L 670.751 33.142 Q 667.033 39.499 667.033 47.036 L 667.033 47.036 L 667.033 47.036 Q 667.033 54.573 670.751 60.93 L 670.751 60.93 L 670.751 60.93 Q 674.468 67.287 680.825 71.004 L 680.825 71.004 L 680.825 71.004 Q 687.182 74.722 694.719 74.722 L 694.719 74.722 L 694.719 74.722 Q 701.743 74.722 707.793 71.44 L 707.793 71.44 L 707.793 71.44 Q 713.843 68.159 717.637 62.571 L 717.637 62.571 L 720.661 64.673 L 720.661 64.673 Q 716.355 71.03 709.51 74.722 L 709.51 74.722 L 709.51 74.722 Q 702.666 78.413 694.719 78.413 L 694.719 78.413 L 694.719 78.413 Q 686.208 78.413 678.979 74.209 L 678.979 74.209 L 678.979 74.209 Q 671.75 70.005 667.546 62.776 L 667.546 62.776 L 667.546 62.776 Q 663.342 55.547 663.342 47.036 L 663.342 47.036 L 663.342 47.036 Q 663.342 38.525 667.546 31.296 L 667.546 31.296 L 667.546 31.296 Q 671.75 24.067 678.979 19.863 L 678.979 19.863 L 678.979 19.863 Q 686.208 15.659 694.719 15.659 L 694.719 15.659 L 694.719 15.659 Q 702.666 15.659 709.51 19.35 L 709.51 19.35 L 709.51 19.35 Q 716.355 23.042 720.661 29.399 Z  M 726.814 25.298 L 726.814 25.298 L 723.738 27.297 L 723.738 27.297 Q 718.918 20.222 711.253 16.095 L 711.253 16.095 L 711.253 16.095 Q 703.589 11.968 694.719 11.968 L 694.719 11.968 L 694.719 11.968 Q 687.593 11.968 681.081 14.736 L 681.081 14.736 L 681.081 14.736 Q 674.57 17.505 669.879 22.196 L 669.879 22.196 L 669.879 22.196 Q 665.188 26.887 662.419 33.398 L 662.419 33.398 L 662.419 33.398 Q 659.651 39.909 659.651 47.036 L 659.651 47.036 L 659.651 47.036 Q 659.651 54.162 662.419 60.674 L 662.419 60.674 L 662.419 60.674 Q 665.188 67.185 669.879 71.876 L 669.879 71.876 L 669.879 71.876 Q 674.57 76.567 681.081 79.336 L 681.081 79.336 L 681.081 79.336 Q 687.593 82.104 694.719 82.104 L 694.719 82.104 L 694.719 82.104 Q 703.64 82.104 711.279 77.951 L 711.279 77.951 L 711.279 77.951 Q 718.918 73.799 723.738 66.723 L 723.738 66.723 L 726.711 68.928 L 726.711 68.928 Q 721.379 76.721 712.945 81.258 L 712.945 81.258 L 712.945 81.258 Q 704.512 85.796 694.719 85.796 L 694.719 85.796 L 694.719 85.796 Q 684.209 85.796 675.288 80.592 L 675.288 80.592 L 675.288 80.592 Q 666.367 75.388 661.163 66.467 L 661.163 66.467 L 661.163 66.467 Q 655.959 57.546 655.959 47.036 L 655.959 47.036 L 655.959 47.036 Q 655.959 36.526 661.163 27.605 L 661.163 27.605 L 661.163 27.605 Q 666.367 18.684 675.288 13.48 L 675.288 13.48 L 675.288 13.48 Q 684.209 8.276 694.719 8.276 L 694.719 8.276 L 694.719 8.276 Q 704.563 8.276 713.022 12.865 L 713.022 12.865 L 713.022 12.865 Q 721.482 17.453 726.814 25.298 Z  M 732.864 21.094 L 732.864 21.094 L 729.787 23.093 L 729.787 23.093 Q 723.943 14.531 714.689 9.558 L 714.689 9.558 L 714.689 9.558 Q 705.434 4.585 694.719 4.585 L 694.719 4.585 L 694.719 4.585 Q 686.106 4.585 678.236 7.943 L 678.236 7.943 L 678.236 7.943 Q 670.366 11.301 664.675 16.992 L 664.675 16.992 L 664.675 16.992 Q 658.984 22.683 655.626 30.553 L 655.626 30.553 L 655.626 30.553 Q 652.268 38.423 652.268 47.036 L 652.268 47.036 L 652.268 47.036 Q 652.268 55.649 655.626 63.519 L 655.626 63.519 L 655.626 63.519 Q 658.984 71.389 664.675 77.08 L 664.675 77.08 L 664.675 77.08 Q 670.366 82.771 678.236 86.129 L 678.236 86.129 L 678.236 86.129 Q 686.106 89.487 694.719 89.487 L 694.719 89.487 L 694.719 89.487 Q 705.434 89.487 714.714 84.463 L 714.714 84.463 L 714.714 84.463 Q 723.994 79.438 729.839 70.876 L 729.839 70.876 L 732.812 73.132 L 732.812 73.132 Q 726.455 82.361 716.406 87.77 L 716.406 87.77 L 716.406 87.77 Q 706.357 93.179 694.719 93.179 L 694.719 93.179 L 694.719 93.179 Q 685.337 93.179 676.8 89.513 L 676.8 89.513 L 676.8 89.513 Q 668.264 85.847 662.086 79.669 L 662.086 79.669 L 662.086 79.669 Q 655.908 73.491 652.242 64.955 L 652.242 64.955 L 652.242 64.955 Q 648.576 56.418 648.576 47.036 L 648.576 47.036 L 648.576 47.036 Q 648.576 37.654 652.242 29.117 L 652.242 29.117 L 652.242 29.117 Q 655.908 20.581 662.086 14.403 L 662.086 14.403 L 662.086 14.403 Q 668.264 8.225 676.8 4.559 L 676.8 4.559 L 676.8 4.559 Q 685.337 0.893 694.719 0.893 L 694.719 0.893 L 694.719 0.893 Q 706.408 0.893 716.457 6.328 L 716.457 6.328 L 716.457 6.328 Q 726.506 11.763 732.864 21.094 Z  M 793.669 8.276 L 738.298 8.276 L 738.298 4.585 L 793.669 4.585 L 793.669 8.276 L 793.669 8.276 Z  M 793.669 15.659 L 738.298 15.659 L 738.298 11.968 L 793.669 11.968 L 793.669 15.659 L 793.669 15.659 Z  M 753.064 23.042 L 738.298 23.042 L 738.298 19.35 L 793.669 19.35 L 793.669 23.042 L 778.904 23.042 L 778.904 89.487 L 775.212 89.487 L 775.212 23.042 L 771.521 23.042 L 771.521 89.487 L 767.829 89.487 L 767.829 23.042 L 764.138 23.042 L 764.138 89.487 L 760.447 89.487 L 760.447 23.042 L 756.755 23.042 L 756.755 89.487 L 753.064 89.487 L 753.064 23.042 L 753.064 23.042 Z  M 831.916 32.68 L 831.916 32.68 L 831.916 32.68 Q 825.969 38.628 825.969 47.036 L 825.969 47.036 L 825.969 47.036 Q 825.969 55.444 831.916 61.391 L 831.916 61.391 L 831.916 61.391 Q 837.864 67.339 846.272 67.339 L 846.272 67.339 L 846.272 67.339 Q 854.68 67.339 860.627 61.391 L 860.627 61.391 L 860.627 61.391 Q 866.575 55.444 866.575 47.036 L 866.575 47.036 L 866.575 47.036 Q 866.575 38.628 860.627 32.68 L 860.627 32.68 L 860.627 32.68 Q 854.68 26.733 846.272 26.733 L 846.272 26.733 L 846.272 26.733 Q 837.864 26.733 831.916 32.68 Z  M 824.175 56.341 L 824.175 56.341 L 824.175 56.341 Q 822.278 51.907 822.278 47.036 L 822.278 47.036 L 822.278 47.036 Q 822.278 42.165 824.175 37.731 L 824.175 37.731 L 824.175 37.731 Q 826.072 33.296 829.302 30.066 L 829.302 30.066 L 829.302 30.066 Q 832.532 26.836 836.966 24.939 L 836.966 24.939 L 836.966 24.939 Q 841.401 23.042 846.272 23.042 L 846.272 23.042 L 846.272 23.042 Q 851.142 23.042 855.577 24.939 L 855.577 24.939 L 855.577 24.939 Q 860.012 26.836 863.242 30.066 L 863.242 30.066 L 863.242 30.066 Q 866.472 33.296 868.369 37.731 L 868.369 37.731 L 868.369 37.731 Q 870.266 42.165 870.266 47.036 L 870.266 47.036 L 870.266 47.036 Q 870.266 51.907 868.369 56.341 L 868.369 56.341 L 868.369 56.341 Q 866.472 60.776 863.242 64.006 L 863.242 64.006 L 863.242 64.006 Q 860.012 67.236 855.577 69.133 L 855.577 69.133 L 855.577 69.133 Q 851.142 71.03 846.272 71.03 L 846.272 71.03 L 846.272 71.03 Q 841.401 71.03 836.966 69.133 L 836.966 69.133 L 836.966 69.133 Q 832.532 67.236 829.302 64.006 L 829.302 64.006 L 829.302 64.006 Q 826.072 60.776 824.175 56.341 Z  M 822.303 33.142 L 822.303 33.142 L 822.303 33.142 Q 818.586 39.499 818.586 47.036 L 818.586 47.036 L 818.586 47.036 Q 818.586 54.573 822.303 60.93 L 822.303 60.93 L 822.303 60.93 Q 826.02 67.287 832.378 71.004 L 832.378 71.004 L 832.378 71.004 Q 838.735 74.722 846.272 74.722 L 846.272 74.722 L 846.272 74.722 Q 853.808 74.722 860.166 71.004 L 860.166 71.004 L 860.166 71.004 Q 866.523 67.287 870.24 60.93 L 870.24 60.93 L 870.24 60.93 Q 873.957 54.573 873.957 47.036 L 873.957 47.036 L 873.957 47.036 Q 873.957 39.499 870.24 33.142 L 870.24 33.142 L 870.24 33.142 Q 866.523 26.784 860.166 23.067 L 860.166 23.067 L 860.166 23.067 Q 853.808 19.35 846.272 19.35 L 846.272 19.35 L 846.272 19.35 Q 838.735 19.35 832.378 23.067 L 832.378 23.067 L 832.378 23.067 Q 826.02 26.784 822.303 33.142 Z  M 819.099 62.776 L 819.099 62.776 L 819.099 62.776 Q 814.895 55.547 814.895 47.036 L 814.895 47.036 L 814.895 47.036 Q 814.895 38.525 819.099 31.296 L 819.099 31.296 L 819.099 31.296 Q 823.303 24.067 830.532 19.863 L 830.532 19.863 L 830.532 19.863 Q 837.761 15.659 846.272 15.659 L 846.272 15.659 L 846.272 15.659 Q 854.783 15.659 862.012 19.863 L 862.012 19.863 L 862.012 19.863 Q 869.241 24.067 873.445 31.296 L 873.445 31.296 L 873.445 31.296 Q 877.649 38.525 877.649 47.036 L 877.649 47.036 L 877.649 47.036 Q 877.649 55.547 873.445 62.776 L 873.445 62.776 L 873.445 62.776 Q 869.241 70.005 862.012 74.209 L 862.012 74.209 L 862.012 74.209 Q 854.783 78.413 846.272 78.413 L 846.272 78.413 L 846.272 78.413 Q 837.761 78.413 830.532 74.209 L 830.532 74.209 L 830.532 74.209 Q 823.303 70.005 819.099 62.776 Z  M 813.972 33.398 L 813.972 33.398 L 813.972 33.398 Q 811.203 39.909 811.203 47.036 L 811.203 47.036 L 811.203 47.036 Q 811.203 54.162 813.972 60.674 L 813.972 60.674 L 813.972 60.674 Q 816.741 67.185 821.432 71.876 L 821.432 71.876 L 821.432 71.876 Q 826.123 76.567 832.634 79.336 L 832.634 79.336 L 832.634 79.336 Q 839.145 82.104 846.272 82.104 L 846.272 82.104 L 846.272 82.104 Q 853.398 82.104 859.909 79.336 L 859.909 79.336 L 859.909 79.336 Q 866.421 76.567 871.112 71.876 L 871.112 71.876 L 871.112 71.876 Q 875.803 67.185 878.572 60.674 L 878.572 60.674 L 878.572 60.674 Q 881.34 54.162 881.34 47.036 L 881.34 47.036 L 881.34 47.036 Q 881.34 39.909 878.572 33.398 L 878.572 33.398 L 878.572 33.398 Q 875.803 26.887 871.112 22.196 L 871.112 22.196 L 871.112 22.196 Q 866.421 17.505 859.909 14.736 L 859.909 14.736 L 859.909 14.736 Q 853.398 11.968 846.272 11.968 L 846.272 11.968 L 846.272 11.968 Q 839.145 11.968 832.634 14.736 L 832.634 14.736 L 832.634 14.736 Q 826.123 17.505 821.432 22.196 L 821.432 22.196 L 821.432 22.196 Q 816.741 26.887 813.972 33.398 Z  M 812.716 66.467 L 812.716 66.467 L 812.716 66.467 Q 807.512 57.546 807.512 47.036 L 807.512 47.036 L 807.512 47.036 Q 807.512 36.526 812.716 27.605 L 812.716 27.605 L 812.716 27.605 Q 817.92 18.684 826.841 13.48 L 826.841 13.48 L 826.841 13.48 Q 835.762 8.276 846.272 8.276 L 846.272 8.276 L 846.272 8.276 Q 856.782 8.276 865.703 13.48 L 865.703 13.48 L 865.703 13.48 Q 874.624 18.684 879.828 27.605 L 879.828 27.605 L 879.828 27.605 Q 885.032 36.526 885.032 47.036 L 885.032 47.036 L 885.032 47.036 Q 885.032 57.546 879.828 66.467 L 879.828 66.467 L 879.828 66.467 Q 874.624 75.388 865.703 80.592 L 865.703 80.592 L 865.703 80.592 Q 856.782 85.796 846.272 85.796 L 846.272 85.796 L 846.272 85.796 Q 835.762 85.796 826.841 80.592 L 826.841 80.592 L 826.841 80.592 Q 817.92 75.388 812.716 66.467 Z  M 807.179 30.553 L 807.179 30.553 L 807.179 30.553 Q 803.821 38.423 803.821 47.036 L 803.821 47.036 L 803.821 47.036 Q 803.821 55.649 807.179 63.519 L 807.179 63.519 L 807.179 63.519 Q 810.537 71.389 816.228 77.08 L 816.228 77.08 L 816.228 77.08 Q 821.919 82.771 829.789 86.129 L 829.789 86.129 L 829.789 86.129 Q 837.658 89.487 846.272 89.487 L 846.272 89.487 L 846.272 89.487 Q 854.885 89.487 862.755 86.129 L 862.755 86.129 L 862.755 86.129 Q 870.625 82.771 876.316 77.08 L 876.316 77.08 L 876.316 77.08 Q 882.007 71.389 885.365 63.519 L 885.365 63.519 L 885.365 63.519 Q 888.723 55.649 888.723 47.036 L 888.723 47.036 L 888.723 47.036 Q 888.723 38.423 885.365 30.553 L 885.365 30.553 L 885.365 30.553 Q 882.007 22.683 876.316 16.992 L 876.316 16.992 L 876.316 16.992 Q 870.625 11.301 862.755 7.943 L 862.755 7.943 L 862.755 7.943 Q 854.885 4.585 846.272 4.585 L 846.272 4.585 L 846.272 4.585 Q 837.658 4.585 829.789 7.943 L 829.789 7.943 L 829.789 7.943 Q 821.919 11.301 816.228 16.992 L 816.228 16.992 L 816.228 16.992 Q 810.537 22.683 807.179 30.553 Z  M 803.795 64.955 L 803.795 64.955 L 803.795 64.955 Q 800.129 56.418 800.129 47.036 L 800.129 47.036 L 800.129 47.036 Q 800.129 37.654 803.795 29.117 L 803.795 29.117 L 803.795 29.117 Q 807.461 20.581 813.639 14.403 L 813.639 14.403 L 813.639 14.403 Q 819.817 8.225 828.353 4.559 L 828.353 4.559 L 828.353 4.559 Q 836.889 0.893 846.272 0.893 L 846.272 0.893 L 846.272 0.893 Q 855.654 0.893 864.19 4.559 L 864.19 4.559 L 864.19 4.559 Q 872.727 8.225 878.905 14.403 L 878.905 14.403 L 878.905 14.403 Q 885.083 20.581 888.749 29.117 L 888.749 29.117 L 888.749 29.117 Q 892.414 37.654 892.414 47.036 L 892.414 47.036 L 892.414 47.036 Q 892.414 56.418 888.749 64.955 L 888.749 64.955 L 888.749 64.955 Q 885.083 73.491 878.905 79.669 L 878.905 79.669 L 878.905 79.669 Q 872.727 85.847 864.19 89.513 L 864.19 89.513 L 864.19 89.513 Q 855.654 93.179 846.272 93.179 L 846.272 93.179 L 846.272 93.179 Q 836.889 93.179 828.353 89.513 L 828.353 89.513 L 828.353 89.513 Q 819.817 85.847 813.639 79.669 L 813.639 79.669 L 813.639 79.669 Q 807.461 73.491 803.795 64.955 Z  M 927.944 50.932 L 927.944 47.241 L 950.195 47.241 L 950.195 47.241 Q 955.271 47.241 958.783 43.96 L 958.783 43.96 L 958.783 43.96 Q 962.295 40.679 962.295 34.629 L 962.295 34.629 L 962.295 34.629 Q 962.295 30.168 958.603 26.605 L 958.603 26.605 L 958.603 26.605 Q 954.912 23.042 950.195 23.042 L 950.195 23.042 L 918.511 23.042 L 918.511 89.487 L 914.819 89.487 L 914.819 19.35 L 950.195 19.35 L 950.195 19.35 Q 956.45 19.35 961.218 23.99 L 961.218 23.99 L 961.218 23.99 Q 965.986 28.63 965.986 34.629 L 965.986 34.629 L 965.986 34.629 Q 965.986 42.012 961.372 46.472 L 961.372 46.472 L 961.372 46.472 Q 956.758 50.932 950.195 50.932 L 950.195 50.932 L 927.944 50.932 L 927.944 50.932 Z  M 927.944 58.315 L 927.944 54.624 L 950.195 54.624 L 950.195 54.624 Q 958.193 54.624 963.935 49.01 L 963.935 49.01 L 963.935 49.01 Q 969.678 43.396 969.678 34.629 L 969.678 34.629 L 969.678 34.629 Q 969.678 27.092 963.807 21.376 L 963.807 21.376 L 963.807 21.376 Q 957.937 15.659 950.195 15.659 L 950.195 15.659 L 911.128 15.659 L 911.128 89.487 L 907.436 89.487 L 907.436 11.968 L 950.195 11.968 L 950.195 11.968 Q 956.296 11.968 961.654 15.095 L 961.654 15.095 L 961.654 15.095 Q 967.012 18.222 970.19 23.478 L 970.19 23.478 L 970.19 23.478 Q 973.369 28.733 973.369 34.629 L 973.369 34.629 L 973.369 34.629 Q 973.369 44.729 966.524 51.522 L 966.524 51.522 L 966.524 51.522 Q 959.68 58.315 950.195 58.315 L 950.195 58.315 L 927.944 58.315 L 927.944 58.315 Z  M 927.944 65.698 L 927.944 62.007 L 950.195 62.007 L 950.195 62.007 Q 957.373 62.007 963.525 58.469 L 963.525 58.469 L 963.525 58.469 Q 969.678 54.931 973.369 48.6 L 973.369 48.6 L 973.369 48.6 Q 977.06 42.268 977.06 34.629 L 977.06 34.629 L 977.06 34.629 Q 977.06 27.707 973.395 21.632 L 973.395 21.632 L 973.395 21.632 Q 969.729 15.556 963.525 11.916 L 963.525 11.916 L 963.525 11.916 Q 957.322 8.276 950.195 8.276 L 950.195 8.276 L 903.745 8.276 L 903.745 89.487 L 900.054 89.487 L 900.054 4.585 L 950.195 4.585 L 950.195 4.585 Q 958.244 4.585 965.32 8.712 L 965.32 8.712 L 965.32 8.712 Q 972.395 12.839 976.573 19.786 L 976.573 19.786 L 976.573 19.786 Q 980.752 26.733 980.752 34.629 L 980.752 34.629 L 980.752 34.629 Q 980.752 43.755 976.83 50.676 L 976.83 50.676 L 976.83 50.676 Q 972.908 57.597 966.191 61.494 L 966.191 61.494 L 975.727 89.487 L 971.831 89.487 L 962.705 63.237 L 962.705 63.237 Q 960.654 64.057 959.577 64.365 L 959.577 64.365 L 968.139 89.487 L 964.243 89.487 L 955.886 65.237 L 955.886 65.237 Q 955.425 65.339 952.605 65.596 L 952.605 65.596 L 960.552 89.487 L 956.655 89.487 L 948.811 65.698 L 945.478 65.698 L 952.964 89.487 L 949.067 89.487 L 941.531 65.698 L 927.944 65.698 L 927.944 65.698 Z  M 925.893 30.425 L 925.893 89.487 L 922.202 89.487 L 922.202 26.733 L 950.195 26.733 L 950.195 26.733 Q 953.63 26.733 956.117 29.066 L 956.117 29.066 L 956.117 29.066 Q 958.603 31.399 958.603 34.629 L 958.603 34.629 L 958.603 34.629 Q 958.603 43.55 950.195 43.55 L 950.195 43.55 L 927.944 43.55 L 927.944 39.858 L 950.195 39.858 L 950.195 39.858 Q 952.4 39.858 953.656 38.705 L 953.656 38.705 L 953.656 38.705 Q 954.912 37.551 954.912 34.629 L 954.912 34.629 L 954.912 34.629 Q 954.912 32.834 953.553 31.629 L 953.553 31.629 L 953.553 31.629 Q 952.195 30.425 950.195 30.425 L 950.195 30.425 L 925.893 30.425 L 925.893 30.425 Z  M 996.748 4.585 L 1017.051 46.78 L 1015.205 50.83 L 993.056 4.585 L 996.748 4.585 L 996.748 4.585 Z  M 1004.131 4.585 L 1020.742 38.679 L 1018.845 42.729 L 1000.439 4.585 L 1004.131 4.585 L 1004.131 4.585 Z  M 1011.513 4.585 L 1024.433 30.63 L 1022.588 34.68 L 1007.822 4.585 L 1011.513 4.585 L 1011.513 4.585 Z  M 1019.768 89.487 L 1019.768 60.879 L 1046.479 4.585 L 1050.171 4.585 L 1023.459 60.879 L 1023.459 89.487 L 1019.768 89.487 L 1019.768 89.487 Z  M 1027.151 89.487 L 1027.151 60.879 L 1053.862 4.585 L 1057.554 4.585 L 1030.842 60.879 L 1030.842 89.487 L 1027.151 89.487 L 1027.151 89.487 Z  M 1034.533 89.487 L 1034.533 60.879 L 1061.245 4.585 L 1064.936 4.585 L 1038.225 60.879 L 1038.225 89.487 L 1034.533 89.487 L 1034.533 89.487 Z  M 989.365 4.585 L 1014.231 56.982 L 1039.096 4.585 L 1042.788 4.585 L 1016.076 60.879 L 1016.076 89.487 L 1012.385 89.487 L 1012.385 60.879 L 985.674 4.585 L 989.365 4.585 L 989.365 4.585 Z  M 364.748 89.487 L 364.748 4.585 L 368.44 4.585 L 368.44 89.487 L 364.748 89.487 L 364.748 89.487 Z  M 357.366 89.487 L 357.366 4.585 L 361.057 4.585 L 361.057 89.487 L 357.366 89.487 L 357.366 89.487 Z  M 349.983 89.487 L 349.983 4.585 L 353.674 4.585 L 353.674 89.487 L 349.983 89.487 L 349.983 89.487 Z  M 342.6 89.487 L 342.6 4.585 L 346.291 4.585 L 346.291 89.487 L 342.6 89.487 L 342.6 89.487 Z  M 431.911 8.276 L 376.54 8.276 L 376.54 4.585 L 431.911 4.585 L 431.911 8.276 L 431.911 8.276 Z  M 431.911 15.659 L 376.54 15.659 L 376.54 11.968 L 431.911 11.968 L 431.911 15.659 L 431.911 15.659 Z  M 391.306 23.042 L 376.54 23.042 L 376.54 19.35 L 431.911 19.35 L 431.911 23.042 L 417.146 23.042 L 417.146 89.487 L 413.454 89.487 L 413.454 23.042 L 409.763 23.042 L 409.763 89.487 L 406.072 89.487 L 406.072 23.042 L 402.38 23.042 L 402.38 89.487 L 398.689 89.487 L 398.689 23.042 L 394.997 23.042 L 394.997 89.487 L 391.306 89.487 L 391.306 23.042 L 391.306 23.042 Z  M 89.687 89.487 L 89.687 45.139 L 93.379 45.139 L 93.379 89.487 L 89.687 89.487 L 89.687 89.487 Z  M 104.453 89.487 L 104.453 45.139 L 108.144 45.139 L 108.144 89.487 L 104.453 89.487 L 104.453 89.487 Z  M 97.07 89.487 L 97.07 45.139 L 100.762 45.139 L 100.762 89.487 L 97.07 89.487 L 97.07 89.487 Z  M 82.304 45.139 L 85.996 45.139 L 85.996 89.487 L 85.996 89.487 Q 76.255 93.179 65.796 93.179 L 65.796 93.179 L 65.796 93.179 Q 56.721 93.179 48.415 89.846 L 48.415 89.846 L 48.415 89.846 Q 40.11 86.513 33.804 80.592 L 33.804 80.592 L 33.804 80.592 Q 27.497 74.67 23.729 65.929 L 23.729 65.929 L 23.729 65.929 Q 19.961 57.187 19.961 47.036 L 19.961 47.036 L 19.961 47.036 Q 19.961 37.654 23.627 29.117 L 23.627 29.117 L 23.627 29.117 Q 27.292 20.581 33.47 14.403 L 33.47 14.403 L 33.47 14.403 Q 39.648 8.225 48.185 4.559 L 48.185 4.559 L 48.185 4.559 Q 56.721 0.893 66.103 0.893 L 66.103 0.893 L 66.103 0.893 Q 77.793 0.893 87.842 6.328 L 87.842 6.328 L 87.842 6.328 Q 97.89 11.763 104.248 21.094 L 104.248 21.094 L 101.172 23.093 L 101.172 23.093 Q 95.327 14.531 86.073 9.558 L 86.073 9.558 L 86.073 9.558 Q 76.819 4.585 66.103 4.585 L 66.103 4.585 L 66.103 4.585 Q 57.49 4.585 49.62 7.943 L 49.62 7.943 L 49.62 7.943 Q 41.75 11.301 36.059 16.992 L 36.059 16.992 L 36.059 16.992 Q 30.368 22.683 27.01 30.553 L 27.01 30.553 L 27.01 30.553 Q 23.652 38.423 23.652 47.036 L 23.652 47.036 L 23.652 47.036 Q 23.652 56.316 27.113 64.365 L 27.113 64.365 L 27.113 64.365 Q 30.574 72.414 36.341 77.849 L 36.341 77.849 L 36.341 77.849 Q 42.109 83.284 49.748 86.385 L 49.748 86.385 L 49.748 86.385 Q 57.387 89.487 65.642 89.487 L 65.642 89.487 L 65.642 89.487 Q 74.306 89.487 82.304 86.77 L 82.304 86.77 L 82.304 83.232 L 82.304 83.232 Q 74.665 85.796 66.257 85.796 L 66.257 85.796 L 66.257 85.796 Q 60.156 85.796 54.388 84.078 L 54.388 84.078 L 54.388 84.078 Q 48.62 82.361 43.724 79.003 L 43.724 79.003 L 43.724 79.003 Q 38.828 75.644 35.162 71.004 L 35.162 71.004 L 35.162 71.004 Q 31.496 66.365 29.42 60.187 L 29.42 60.187 L 29.42 60.187 Q 27.344 54.009 27.344 47.036 L 27.344 47.036 L 27.344 47.036 Q 27.344 36.526 32.547 27.605 L 32.547 27.605 L 32.547 27.605 Q 37.751 18.684 46.672 13.48 L 46.672 13.48 L 46.672 13.48 Q 55.593 8.276 66.103 8.276 L 66.103 8.276 L 66.103 8.276 Q 75.947 8.276 84.407 12.865 L 84.407 12.865 L 84.407 12.865 Q 92.866 17.453 98.198 25.298 L 98.198 25.298 L 95.122 27.297 L 95.122 27.297 Q 90.303 20.222 82.638 16.095 L 82.638 16.095 L 82.638 16.095 Q 74.973 11.968 66.103 11.968 L 66.103 11.968 L 66.103 11.968 Q 58.977 11.968 52.466 14.736 L 52.466 14.736 L 52.466 14.736 Q 45.954 17.505 41.263 22.196 L 41.263 22.196 L 41.263 22.196 Q 36.572 26.887 33.804 33.398 L 33.804 33.398 L 33.804 33.398 Q 31.035 39.909 31.035 47.036 L 31.035 47.036 L 31.035 47.036 Q 31.035 53.445 32.906 59.059 L 32.906 59.059 L 32.906 59.059 Q 34.778 64.673 38.085 68.851 L 38.085 68.851 L 38.085 68.851 Q 41.391 73.03 45.801 76.029 L 45.801 76.029 L 45.801 76.029 Q 50.21 79.028 55.414 80.566 L 55.414 80.566 L 55.414 80.566 Q 60.617 82.104 66.103 82.104 L 66.103 82.104 L 66.103 82.104 Q 74.614 82.104 82.304 79.233 L 82.304 79.233 L 82.304 75.542 L 82.304 75.542 Q 74.717 78.464 66.462 78.464 L 66.462 78.464 L 66.462 78.464 Q 60.207 78.464 54.516 76.336 L 54.516 76.336 L 54.516 76.336 Q 48.825 74.209 44.391 70.312 L 44.391 70.312 L 44.391 70.312 Q 39.956 66.416 37.341 60.366 L 37.341 60.366 L 37.341 60.366 Q 34.726 54.316 34.726 47.036 L 34.726 47.036 L 34.726 47.036 Q 34.726 38.525 38.93 31.296 L 38.93 31.296 L 38.93 31.296 Q 43.135 24.067 50.364 19.863 L 50.364 19.863 L 50.364 19.863 Q 57.593 15.659 66.103 15.659 L 66.103 15.659 L 66.103 15.659 Q 74.05 15.659 80.895 19.35 L 80.895 19.35 L 80.895 19.35 Q 87.739 23.042 92.046 29.399 L 92.046 29.399 L 88.97 31.399 L 88.97 31.399 Q 85.176 25.862 79.151 22.606 L 79.151 22.606 L 79.151 22.606 Q 73.127 19.35 66.103 19.35 L 66.103 19.35 L 66.103 19.35 Q 58.567 19.35 52.209 23.067 L 52.209 23.067 L 52.209 23.067 Q 45.852 26.784 42.135 33.142 L 42.135 33.142 L 42.135 33.142 Q 38.418 39.499 38.418 47.036 L 38.418 47.036 L 38.418 47.036 Q 38.418 52.265 39.905 56.777 L 39.905 56.777 L 39.905 56.777 Q 41.391 61.289 44.006 64.57 L 44.006 64.57 L 44.006 64.57 Q 46.621 67.851 50.133 70.159 L 50.133 70.159 L 50.133 70.159 Q 53.645 72.466 57.695 73.619 L 57.695 73.619 L 57.695 73.619 Q 61.745 74.773 66.103 74.773 L 66.103 74.773 L 66.103 74.773 Q 74.768 74.773 82.304 71.338 L 82.304 71.338 L 82.304 67.8 L 82.304 67.8 Q 75.024 71.03 66.565 71.03 L 66.565 71.03 L 66.565 71.03 Q 61.694 71.03 57.387 69.543 L 57.387 69.543 L 57.387 69.543 Q 53.081 68.056 49.62 65.185 L 49.62 65.185 L 49.62 65.185 Q 46.159 62.314 44.134 57.623 L 44.134 57.623 L 44.134 57.623 Q 42.109 52.932 42.109 47.036 L 42.109 47.036 L 42.109 47.036 Q 42.109 42.165 44.006 37.731 L 44.006 37.731 L 44.006 37.731 Q 45.903 33.296 49.133 30.066 L 49.133 30.066 L 49.133 30.066 Q 52.363 26.836 56.798 24.939 L 56.798 24.939 L 56.798 24.939 Q 61.233 23.042 66.103 23.042 L 66.103 23.042 L 66.103 23.042 Q 72.204 23.042 77.434 25.887 L 77.434 25.887 L 77.434 25.887 Q 82.663 28.733 85.945 33.603 L 85.945 33.603 L 82.92 35.603 L 82.92 35.603 Q 80.151 31.501 75.716 29.117 L 75.716 29.117 L 75.716 29.117 Q 71.282 26.733 66.103 26.733 L 66.103 26.733 L 66.103 26.733 Q 57.695 26.733 51.748 32.68 L 51.748 32.68 L 51.748 32.68 Q 45.801 38.628 45.801 47.036 L 45.801 47.036 L 45.801 47.036 Q 45.801 52.214 47.492 56.188 L 47.492 56.188 L 47.492 56.188 Q 49.184 60.161 52.132 62.545 L 52.132 62.545 L 52.132 62.545 Q 55.08 64.929 58.695 66.134 L 58.695 66.134 L 58.695 66.134 Q 62.309 67.339 66.462 67.339 L 66.462 67.339 L 66.462 67.339 Q 74.973 67.339 82.304 63.801 L 82.304 63.801 L 82.304 45.139 L 82.304 45.139 Z  M 145.93 52.983 L 145.93 49.292 L 167.361 49.292 L 167.361 49.292 Q 172.641 49.292 176.307 45.729 L 176.307 45.729 L 176.307 45.729 Q 179.973 42.165 179.973 35.654 L 179.973 35.654 L 179.973 35.654 Q 179.973 30.784 176.128 26.913 L 176.128 26.913 L 176.128 26.913 Q 172.283 23.042 167.361 23.042 L 167.361 23.042 L 135.676 23.042 L 135.676 89.487 L 131.985 89.487 L 131.985 19.35 L 167.361 19.35 L 167.361 19.35 Q 173.821 19.35 178.742 24.324 L 178.742 24.324 L 178.742 24.324 Q 183.664 29.297 183.664 35.654 L 183.664 35.654 L 183.664 35.654 Q 183.664 43.498 178.896 48.241 L 178.896 48.241 L 178.896 48.241 Q 174.128 52.983 167.361 52.983 L 167.361 52.983 L 145.93 52.983 L 145.93 52.983 Z  M 145.93 60.366 L 145.93 56.675 L 167.361 56.675 L 167.361 56.675 Q 172.693 56.675 177.23 54.086 L 177.23 54.086 L 177.23 54.086 Q 181.767 51.496 184.562 46.626 L 184.562 46.626 L 184.562 46.626 Q 187.356 41.755 187.356 35.654 L 187.356 35.654 L 187.356 35.654 Q 187.356 27.759 181.332 21.709 L 181.332 21.709 L 181.332 21.709 Q 175.307 15.659 167.361 15.659 L 167.361 15.659 L 128.293 15.659 L 128.293 89.487 L 124.602 89.487 L 124.602 11.968 L 167.361 11.968 L 167.361 11.968 Q 173.564 11.968 179.05 15.249 L 179.05 15.249 L 179.05 15.249 Q 184.536 18.53 187.792 24.016 L 187.792 24.016 L 187.792 24.016 Q 191.047 29.502 191.047 35.654 L 191.047 35.654 L 191.047 35.654 Q 191.047 42.627 187.766 48.343 L 187.766 48.343 L 187.766 48.343 Q 184.485 54.06 179.076 57.213 L 179.076 57.213 L 179.076 57.213 Q 173.667 60.366 167.361 60.366 L 167.361 60.366 L 145.93 60.366 L 145.93 60.366 Z  M 145.93 67.749 L 145.93 64.057 L 167.361 64.057 L 167.361 64.057 Q 172.846 64.057 177.871 61.878 L 177.871 61.878 L 177.871 61.878 Q 182.895 59.7 186.612 55.982 L 186.612 55.982 L 186.612 55.982 Q 190.329 52.265 192.534 46.959 L 192.534 46.959 L 192.534 46.959 Q 194.739 41.653 194.739 35.654 L 194.739 35.654 L 194.739 35.654 Q 194.739 28.476 190.996 22.145 L 190.996 22.145 L 190.996 22.145 Q 187.253 15.813 180.921 12.044 L 180.921 12.044 L 180.921 12.044 Q 174.59 8.276 167.361 8.276 L 167.361 8.276 L 120.91 8.276 L 120.91 89.487 L 117.219 89.487 L 117.219 4.585 L 167.361 4.585 L 167.361 4.585 Q 175.564 4.585 182.741 8.866 L 182.741 8.866 L 182.741 8.866 Q 189.919 13.147 194.175 20.325 L 194.175 20.325 L 194.175 20.325 Q 198.43 27.502 198.43 35.654 L 198.43 35.654 L 198.43 35.654 Q 198.43 42.934 195.918 49.061 L 195.918 49.061 L 195.918 49.061 Q 193.406 55.188 189.15 59.238 L 189.15 59.238 L 189.15 59.238 Q 184.895 63.288 179.255 65.519 L 179.255 65.519 L 179.255 65.519 Q 173.616 67.749 167.361 67.749 L 167.361 67.749 L 145.93 67.749 L 145.93 67.749 Z  M 143.059 30.425 L 143.059 89.487 L 139.367 89.487 L 139.367 26.733 L 167.361 26.733 L 167.361 26.733 Q 171.001 26.733 173.641 29.399 L 173.641 29.399 L 173.641 29.399 Q 176.282 32.065 176.282 35.654 L 176.282 35.654 L 176.282 35.654 Q 176.282 45.6 167.361 45.6 L 167.361 45.6 L 145.93 45.6 L 145.93 41.909 L 167.361 41.909 L 167.361 41.909 Q 169.822 41.909 171.206 40.525 L 171.206 40.525 L 171.206 40.525 Q 172.59 39.14 172.59 35.654 L 172.59 35.654 L 172.59 35.654 Q 172.59 33.398 171.078 31.911 L 171.078 31.911 L 171.078 31.911 Q 169.565 30.425 167.361 30.425 L 167.361 30.425 L 143.059 30.425 L 143.059 30.425 Z  M 262.927 59.905 L 262.927 59.905 L 262.927 59.905 Q 262.927 57.905 261.722 57.239 L 261.722 57.239 L 261.722 57.239 Q 260.517 56.572 258.21 56.572 L 258.21 56.572 L 234.421 56.572 L 234.421 52.881 L 258.21 52.881 L 258.21 52.881 Q 266.618 52.881 266.618 59.905 L 266.618 59.905 L 266.618 59.905 Q 266.618 63.852 264.311 65.596 L 264.311 65.596 L 264.311 65.596 Q 262.004 67.339 258.21 67.339 L 258.21 67.339 L 234.421 67.339 L 234.421 63.647 L 258.21 63.647 L 258.21 63.647 Q 262.927 63.647 262.927 59.905 Z  M 232.37 30.425 L 232.37 89.487 L 228.679 89.487 L 228.679 26.733 L 258.21 26.733 L 258.21 26.733 Q 261.697 26.733 264.158 28.861 L 264.158 28.861 L 264.158 28.861 Q 266.618 30.989 266.618 34.167 L 266.618 34.167 L 266.618 34.167 Q 266.618 38.371 264.311 40.243 L 264.311 40.243 L 264.311 40.243 Q 262.004 42.114 258.21 42.114 L 258.21 42.114 L 234.421 42.114 L 234.421 38.423 L 258.21 38.423 L 258.21 38.423 Q 262.927 38.423 262.927 34.167 L 262.927 34.167 L 262.927 34.167 Q 262.927 32.424 261.594 31.424 L 261.594 31.424 L 261.594 31.424 Q 260.261 30.425 258.21 30.425 L 258.21 30.425 L 232.37 30.425 L 232.37 30.425 Z  M 234.421 49.497 L 234.421 45.805 L 258.21 45.805 L 258.21 45.805 Q 263.286 45.805 266.798 42.755 L 266.798 42.755 L 266.798 42.755 Q 270.31 39.704 270.31 34.167 L 270.31 34.167 L 270.31 34.167 Q 270.31 29.707 266.644 26.374 L 266.644 26.374 L 266.644 26.374 Q 262.978 23.042 258.21 23.042 L 258.21 23.042 L 224.988 23.042 L 224.988 89.487 L 221.296 89.487 L 221.296 19.35 L 258.21 19.35 L 258.21 19.35 Q 264.516 19.35 269.259 23.785 L 269.259 23.785 L 269.259 23.785 Q 274.001 28.22 274.001 34.167 L 274.001 34.167 L 274.001 34.167 Q 274.001 38.833 271.822 42.319 L 271.822 42.319 L 271.822 42.319 Q 269.643 45.805 265.952 47.702 L 265.952 47.702 L 265.952 47.702 Q 274.001 50.574 274.001 59.392 L 274.001 59.392 L 274.001 59.392 Q 274.001 66.365 269.387 70.543 L 269.387 70.543 L 269.387 70.543 Q 264.773 74.722 258.21 74.722 L 258.21 74.722 L 234.421 74.722 L 234.421 71.03 L 258.21 71.03 L 258.21 71.03 Q 263.286 71.03 266.798 67.98 L 266.798 67.98 L 266.798 67.98 Q 270.31 64.929 270.31 59.392 L 270.31 59.392 L 270.31 59.392 Q 270.31 55.649 267.644 52.778 L 267.644 52.778 L 267.644 52.778 Q 264.978 49.907 259.8 49.446 L 259.8 49.446 L 259.8 49.446 Q 259.287 49.497 258.21 49.497 L 258.21 49.497 L 234.421 49.497 L 234.421 49.497 Z  M 281.384 34.167 L 281.384 34.167 L 281.384 34.167 Q 281.384 41.345 276.308 47.138 L 276.308 47.138 L 276.308 47.138 Q 281.384 52.778 281.384 59.392 L 281.384 59.392 L 281.384 59.392 Q 281.384 65.801 278.18 71.056 L 278.18 71.056 L 278.18 71.056 Q 274.975 76.311 269.669 79.208 L 269.669 79.208 L 269.669 79.208 Q 264.363 82.104 258.21 82.104 L 258.21 82.104 L 234.421 82.104 L 234.421 78.413 L 258.21 78.413 L 258.21 78.413 Q 266.208 78.413 271.95 73.055 L 271.95 73.055 L 271.95 73.055 Q 277.693 67.698 277.693 59.392 L 277.693 59.392 L 277.693 59.392 Q 277.693 56.418 276.18 52.804 L 276.18 52.804 L 276.18 52.804 Q 274.668 49.189 272.002 47.292 L 272.002 47.292 L 272.002 47.292 Q 277.693 41.96 277.693 34.167 L 277.693 34.167 L 277.693 34.167 Q 277.693 26.682 271.848 21.17 L 271.848 21.17 L 271.848 21.17 Q 266.003 15.659 258.21 15.659 L 258.21 15.659 L 217.605 15.659 L 217.605 89.487 L 213.913 89.487 L 213.913 11.968 L 258.21 11.968 L 258.21 11.968 Q 264.311 11.968 269.669 14.967 L 269.669 14.967 L 269.669 14.967 Q 275.027 17.966 278.205 23.119 L 278.205 23.119 L 278.205 23.119 Q 281.384 28.271 281.384 34.167 Z  M 280.512 47.344 L 280.512 47.344 L 280.512 47.344 Q 285.075 41.242 285.075 34.167 L 285.075 34.167 L 285.075 34.167 Q 285.075 27.246 281.41 21.273 L 281.41 21.273 L 281.41 21.273 Q 277.744 15.3 271.54 11.788 L 271.54 11.788 L 271.54 11.788 Q 265.337 8.276 258.21 8.276 L 258.21 8.276 L 210.222 8.276 L 210.222 89.487 L 206.531 89.487 L 206.531 4.585 L 258.21 4.585 L 258.21 4.585 Q 266.311 4.585 273.36 8.584 L 273.36 8.584 L 273.36 8.584 Q 280.41 12.583 284.588 19.427 L 284.588 19.427 L 284.588 19.427 Q 288.767 26.272 288.767 34.167 L 288.767 34.167 L 288.767 34.167 Q 288.767 41.704 284.512 47.395 L 284.512 47.395 L 284.512 47.395 Q 288.767 53.291 288.767 59.392 L 288.767 59.392 L 288.767 59.392 Q 288.767 66.262 286.306 71.979 L 286.306 71.979 L 286.306 71.979 Q 283.845 77.695 279.667 81.489 L 279.667 81.489 L 279.667 81.489 Q 275.488 85.283 269.951 87.385 L 269.951 87.385 L 269.951 87.385 Q 264.414 89.487 258.21 89.487 L 258.21 89.487 L 234.421 89.487 L 234.421 85.796 L 258.21 85.796 L 258.21 85.796 Q 263.594 85.796 268.515 83.771 L 268.515 83.771 L 268.515 83.771 Q 273.437 81.745 277.077 78.259 L 277.077 78.259 L 277.077 78.259 Q 280.718 74.773 282.897 69.851 L 282.897 69.851 L 282.897 69.851 Q 285.075 64.929 285.075 59.392 L 285.075 59.392 L 285.075 59.392 Q 285.075 56.931 283.922 53.47 L 283.922 53.47 L 283.922 53.47 Q 282.768 50.01 280.512 47.344 Z " fill="rgb(140,200,134)"/></g></svg>