<?xml version="1.0" encoding="UTF-8" standalone="no"?><!-- Generator: Gravit.io --><svg xmlns="http://www.w3.org/2000/svg" xmlns:xlink="http://www.w3.org/1999/xlink" style="isolation:isolate" viewBox="0 0 135 45" width="135pt" height="45pt"><defs><clipPath id="_clipPath_G1edxrILxMWnbbxDHpzW7MF5m5d2yoGN"><rect width="135" height="45"/></clipPath></defs><g clip-path="url(#_clipPath_G1edxrILxMWnbbxDHpzW7MF5m5d2yoGN)"><rect width="135" height="45" style="fill:rgb(114,183,107)"/><polygon points="19.714,11.358,5.66,11.383,12.658,2.612" fill="rgb(140,200,134)"/><polygon points="19.714,42.039,5.66,42.063,12.658,33.293" fill="rgb(140,200,134)"/><polygon points="19.714,26.861,5.66,26.885,12.658,18.115" fill="rgb(140,200,134)"/><polygon points="128.918,11.358,114.864,11.383,121.862,2.612" fill="rgb(140,200,134)"/><polygon points="128.918,42.039,114.864,42.063,121.862,33.293" fill="rgb(140,200,134)"/><polygon points="128.918,26.861,114.864,26.885,121.862,18.115" fill="rgb(140,200,134)"/><polygon points="103.248,11.334,89.194,11.358,96.191,2.588" fill="rgb(140,200,134)"/><polygon points="103.248,42.014,89.194,42.039,96.191,33.268" fill="rgb(140,200,134)"/><polygon points="103.248,26.836,89.194,26.861,96.191,18.09" fill="rgb(140,200,134)"/><polygon points="47.945,11.334,33.891,11.358,40.889,2.588" fill="rgb(140,200,134)"/><polygon points="47.945,42.014,33.891,42.039,40.889,33.268" fill="rgb(140,200,134)"/><polygon points="47.945,26.836,33.891,26.861,40.889,18.09" fill="rgb(140,200,134)"/><polygon points="74.527,11.334,60.473,11.358,67.47,2.588" fill="rgb(140,200,134)"/><polygon points="74.527,42.014,60.473,42.039,67.47,33.268" fill="rgb(140,200,134)"/><polygon points="74.527,26.836,60.473,26.861,67.47,18.09" fill="rgb(140,200,134)"/><path d=" M 30.95 33.245 L 24.29 33.245 L 24.29 11.345 L 30.5 11.345 L 30.5 11.345 Q 33.5 11.345 35.195 12.845 L 35.195 12.845 L 35.195 12.845 Q 36.89 14.345 36.89 17.015 L 36.89 17.015 L 36.89 17.015 Q 36.89 18.515 36.26 19.625 L 36.26 19.625 L 36.26 19.625 Q 35.63 20.735 34.475 21.335 L 34.475 21.335 L 34.475 21.335 Q 33.32 21.935 31.7 21.905 L 31.7 21.905 L 31.7 21.455 L 31.7 21.455 Q 33.44 21.425 34.715 22.115 L 34.715 22.115 L 34.715 22.115 Q 35.99 22.805 36.695 24.095 L 36.695 24.095 L 36.695 24.095 Q 37.4 25.385 37.4 27.155 L 37.4 27.155 L 37.4 27.155 Q 37.4 29.015 36.62 30.395 L 36.62 30.395 L 36.62 30.395 Q 35.84 31.775 34.4 32.51 L 34.4 32.51 L 34.4 32.51 Q 32.96 33.245 30.95 33.245 L 30.95 33.245 L 30.95 33.245 Z  M 26.93 23.015 L 26.93 30.815 L 30.65 30.815 L 30.65 30.815 Q 32.54 30.815 33.635 29.81 L 33.635 29.81 L 33.635 29.81 Q 34.73 28.805 34.73 27.065 L 34.73 27.065 L 34.73 27.065 Q 34.73 25.265 33.635 24.14 L 33.635 24.14 L 33.635 24.14 Q 32.54 23.015 30.65 23.015 L 30.65 23.015 L 26.93 23.015 L 26.93 23.015 Z  M 26.93 13.775 L 26.93 20.675 L 30.47 20.675 L 30.47 20.675 Q 32.21 20.675 33.215 19.745 L 33.215 19.745 L 33.215 19.745 Q 34.22 18.815 34.22 17.225 L 34.22 17.225 L 34.22 17.225 Q 34.22 15.635 33.23 14.705 L 33.23 14.705 L 33.23 14.705 Q 32.24 13.775 30.5 13.775 L 30.5 13.775 L 26.93 13.775 L 26.93 13.775 Z  M 48.95 33.245 L 42.29 33.245 L 42.29 11.345 L 48.5 11.345 L 48.5 11.345 Q 51.5 11.345 53.195 12.845 L 53.195 12.845 L 53.195 12.845 Q 54.89 14.345 54.89 17.015 L 54.89 17.015 L 54.89 17.015 Q 54.89 18.515 54.26 19.625 L 54.26 19.625 L 54.26 19.625 Q 53.63 20.735 52.475 21.335 L 52.475 21.335 L 52.475 21.335 Q 51.32 21.935 49.7 21.905 L 49.7 21.905 L 49.7 21.455 L 49.7 21.455 Q 51.44 21.425 52.715 22.115 L 52.715 22.115 L 52.715 22.115 Q 53.99 22.805 54.695 24.095 L 54.695 24.095 L 54.695 24.095 Q 55.4 25.385 55.4 27.155 L 55.4 27.155 L 55.4 27.155 Q 55.4 29.015 54.62 30.395 L 54.62 30.395 L 54.62 30.395 Q 53.84 31.775 52.4 32.51 L 52.4 32.51 L 52.4 32.51 Q 50.96 33.245 48.95 33.245 L 48.95 33.245 L 48.95 33.245 Z  M 44.93 23.015 L 44.93 30.815 L 48.65 30.815 L 48.65 30.815 Q 50.54 30.815 51.635 29.81 L 51.635 29.81 L 51.635 29.81 Q 52.73 28.805 52.73 27.065 L 52.73 27.065 L 52.73 27.065 Q 52.73 25.265 51.635 24.14 L 51.635 24.14 L 51.635 24.14 Q 50.54 23.015 48.65 23.015 L 48.65 23.015 L 44.93 23.015 L 44.93 23.015 Z  M 44.93 13.775 L 44.93 20.675 L 48.47 20.675 L 48.47 20.675 Q 50.21 20.675 51.215 19.745 L 51.215 19.745 L 51.215 19.745 Q 52.22 18.815 52.22 17.225 L 52.22 17.225 L 52.22 17.225 Q 52.22 15.635 51.23 14.705 L 51.23 14.705 L 51.23 14.705 Q 50.24 13.775 48.5 13.775 L 48.5 13.775 L 44.93 13.775 L 44.93 13.775 Z  M 73.1 33.245 L 60.5 33.245 L 60.5 11.345 L 73.1 11.345 L 73.1 13.805 L 63.17 13.805 L 63.17 20.585 L 72.05 20.585 L 72.05 23.015 L 63.17 23.015 L 63.17 30.785 L 73.1 30.785 L 73.1 33.245 L 73.1 33.245 Z  M 80.96 33.245 L 78.26 33.245 L 78.26 11.345 L 85.31 11.345 L 85.31 11.345 Q 87.35 11.345 88.85 12.14 L 88.85 12.14 L 88.85 12.14 Q 90.35 12.935 91.175 14.375 L 91.175 14.375 L 91.175 14.375 Q 92 15.815 92 17.795 L 92 17.795 L 92 17.795 Q 92 19.745 91.175 21.2 L 91.175 21.2 L 91.175 21.2 Q 90.35 22.655 88.85 23.45 L 88.85 23.45 L 88.85 23.45 Q 87.35 24.245 85.31 24.245 L 85.31 24.245 L 80.96 24.245 L 80.96 33.245 L 80.96 33.245 Z  M 80.96 13.775 L 80.96 21.815 L 85.31 21.815 L 85.31 21.815 Q 87.08 21.815 88.145 20.72 L 88.145 20.72 L 88.145 20.72 Q 89.21 19.625 89.21 17.795 L 89.21 17.795 L 89.21 17.795 Q 89.21 15.935 88.145 14.855 L 88.145 14.855 L 88.145 14.855 Q 87.08 13.775 85.31 13.775 L 85.31 13.775 L 80.96 13.775 L 80.96 13.775 Z  M 97.7 33.245 L 94.7 33.245 L 101 22.145 L 95.03 11.345 L 98.15 11.345 L 101.54 17.825 L 101.54 17.825 Q 101.81 18.335 102.095 18.92 L 102.095 18.92 L 102.095 18.92 Q 102.38 19.505 102.56 19.835 L 102.56 19.835 L 102.56 19.835 Q 102.71 19.505 102.995 18.92 L 102.995 18.92 L 102.995 18.92 Q 103.28 18.335 103.55 17.825 L 103.55 17.825 L 107 11.345 L 109.97 11.345 L 104 21.965 L 110.3 33.245 L 107.21 33.245 L 103.46 26.285 L 103.46 26.285 Q 103.19 25.775 102.905 25.19 L 102.905 25.19 L 102.905 25.19 Q 102.62 24.605 102.47 24.245 L 102.47 24.245 L 102.47 24.245 Q 102.32 24.605 102.035 25.175 L 102.035 25.175 L 102.035 25.175 Q 101.75 25.745 101.48 26.255 L 101.48 26.255 L 97.7 33.245 L 97.7 33.245 Z " fill="rgb(13,17,23)"/></g></svg>